<?xml version="1.0" encoding="UTF-8"?>
<svg width="17px" height="17px" viewBox="0 0 17 17" version="1.1" xmlns="http://www.w3.org/2000/svg" xmlns:xlink="http://www.w3.org/1999/xlink">
    <title>SOU SUO</title>
    <defs>
        <filter color-interpolation-filters="auto" id="filter-1">
            <feColorMatrix in="SourceGraphic" type="matrix" values="0 0 0 0 1.000000 0 0 0 0 1.000000 0 0 0 0 1.000000 0 0 0 1.000000 0"></feColorMatrix>
        </filter>
    </defs>
    <g id="页面-1" stroke="none" stroke-width="1" fill="none" fill-rule="evenodd">
        <g id="分配站点" transform="translate(-775.000000, -218.000000)">
            <g id="编组" transform="translate(427.500000, 72.000000)">
                <g id="编组-5" transform="translate(332.068845, 138.330707)">
                    <g id="SOU-SUO" transform="translate(12.000000, 4.000000)" filter="url(#filter-1)">
                        <g transform="translate(4.000000, 4.000000)">
                            <rect id="矩形" fill="#000000" fill-rule="nonzero" opacity="0" x="0" y="0" width="16" height="16"></rect>
                            <path d="M11.6201135,11.5459269 L15.1638021,15.0899352 C15.3064194,15.2325526 15.3064194,15.4640659 15.1638021,15.6066832 L14.9054281,15.8653769 C14.7628108,16.0079942 14.5312975,16.0079942 14.3886802,15.8653769 L10.7679271,12.2443041 C9.65922124,13.0102079 8.34313143,13.4194151 6.99560317,13.4172196 C3.32272764,13.4168998 0.345671109,10.4395235 0.345671109,6.76696778 C0.345671109,3.09441202 3.32272764,0.117675281 6.99560317,0.117675281 C10.6681589,0.117675281 13.6452155,3.0947318 13.6452154,6.76760733 C13.6452154,8.643057 12.8688145,10.3368775 11.6197937,11.5459269 L11.6201135,11.5459269 Z M6.99560317,12.3207291 C10.062515,12.3207291 12.5487249,9.83451916 12.5487249,6.76760733 C12.5487249,3.70037573 10.062515,1.2141658 6.99560317,1.2141658 C3.92837158,1.2141658 1.44216164,3.70037572 1.44216164,6.76760733 C1.44216164,9.83451916 3.92837156,12.3207291 6.99560317,12.3207291 Z" id="形状" fill="#595959" fill-rule="nonzero"></path>
                        </g>
                    </g>
                </g>
            </g>
        </g>
    </g>
</svg>